<?xml version="1.0" encoding="UTF-8"?>
<!-- Generator: Adobe Illustrator 22.1.0, SVG Export Plug-In . SVG Version: 6.00 Build 0)  -->
<svg version="1.1" id="Ebene_1" xmlns="http://www.w3.org/2000/svg" xmlns:xlink="http://www.w3.org/1999/xlink" x="0px" y="0px" viewBox="0 0 70 70" style="enable-background:new 0 0 70 70;" xml:space="preserve">
<style type="text/css">
	.st0{clip-path:url(#SVGID_2_);}
	.st1{clip-path:url(#SVGID_4_);fill:#EE7F00;}
</style>
<g>
	<g>
		<defs>
			<rect id="SVGID_1_" x="0" width="70" height="70"/>
		</defs>
		<clipPath id="SVGID_2_">
			<use xlink:href="#SVGID_1_" style="overflow:visible;"/>
		</clipPath>
		<g class="st0">
			<defs>
				<rect id="SVGID_3_" x="0" width="70" height="70"/>
			</defs>
			<clipPath id="SVGID_4_">
				<use xlink:href="#SVGID_3_" style="overflow:visible;"/>
			</clipPath>
			<path class="st1" d="M41.6,12.2c-1.2,0-2.5,0.2-4,0.5c-3.3,0.8-6.7,2.9-9.1,5.5c-2.6,2.9-3.7,6.2-3,8.9c0,0.2,0.1,0.4,0.1,0.5     c-2.5,0-4.3-0.9-4.6-2.1c-0.1-0.6,0-1.1,0.3-1.5c0.3-0.4,0.9-0.7,1.4-0.9l0.9-0.2l-0.2-0.9c-0.5-2-1.7-2.4-2.7-2.4     c-0.3,0-0.6,0-1,0.1c-0.5,0.1-1.5,0.6-2.4,1.6c-0.7,0.9-1.5,2.3-1,4.5c0.7,3.1,4.1,4.9,9.1,4.9c0.5,0,1,0,1.5-0.1     c1.4,1.8,3.6,2.8,7.2,4.2l0.4,0.2c3.2,1.3,5.9,2.4,6.8,5.8c1.7,6.9-4.9,11.1-9.7,12.3c-1.2,0.3-2.3,0.4-3.3,0.4     c-1.8,0-6.5-0.9-7.5-5c-0.5-2,0.3-3.5,1.1-4.4c1.1-1.3,2.9-2.3,5-2.8l0.9-0.2l-0.2-0.9c-0.5-2.1-2.2-3.1-4.4-2.6     c-4.7,1.1-9,5.6-7.8,10.9c0.5,2.2,1.8,4.3,3.7,5.8c2.2,1.8,5.2,2.8,8.6,2.8c0,0,0,0,0,0c1.7,0,3.6-0.2,5.5-0.7     c2.9-0.7,7.5-2.6,11.1-5.5c4.5-3.8,6.3-8.3,5.1-13.2c-0.9-3.8-4.2-6.7-9.7-8.7c-0.7-0.3-1.5-0.5-2.2-0.7c0,0-0.1,0-0.1,0     c8-3,11.9-7.2,10.9-11.6C48,15.3,46.7,12.2,41.6,12.2 M33.3,26.3c-0.3-0.3-0.6-0.7-0.6-1c-0.4-1.6,0.1-3.2,1.2-4.7     c1.2-1.5,3.2-2.7,5.4-3.2c0.9-0.2,1.8-0.3,2.5-0.3c1.8,0,2.2,0.8,2.4,1.4C44.8,21,40.3,24.2,33.3,26.3 M67.8,17.3     c-0.2,0.4-0.7,0.9-1.8,0.9h0l-0.2,0c-0.9,0-2.9,0.4-4.8,0.7c-0.3,0.6-0.5,1.1-0.7,1.6l-0.1,0.3c-1.7,3.8-3.5,8.2-3,12.1     c0,0.2,0.1,0.5,0.2,0.7c0.1,0.2,0.2,0.5,0.2,0.7l0.3,1.1l-1,0.4c-0.4,0.2-0.8,0.3-1.2,0.4c-0.4,0.1-0.8,0.1-1.2,0.1     c-1,0-1.9-0.4-2.5-1c-1-1-1.4-2.7-1.2-5.1c0.1-1.7,0.5-3.1,0.6-3.2c0.7-2.5,1.9-4.8,3.1-6.9c-1.2,0.2-2.4,0.5-3.6,0.7l-0.2,0     l-0.2-0.1c-0.4-0.1-0.8-0.4-0.9-1c-0.1-0.5,0.3-1,1-1.4l0.1,0c0.1-0.1,2.9-1.3,6.5-2.4l0.2-0.3c1.1-1.7,2.1-3.3,3-4.8     c-0.7-0.2-1.5-0.3-2.5-0.3c-1.1,0-2.4,0.2-3.7,0.5c-0.7,0.2-1.5,0.4-2.3,0.6L50.7,12l-0.5-1c-0.9-2-0.3-4,1.6-5.1     c0.9-0.5,2.1-1,3.4-1.3c1.2-0.3,2.5-0.4,3.7-0.4c3.4,0,5.8,1.1,6.5,3c0.6,1.8-0.5,4.3-1.8,6.7c-0.1,0.3-0.2,0.5-0.3,0.7     c0,0,0,0.1-0.1,0.1c1.4-0.2,2.6-0.2,3.7-0.2l0.5,0l0.2,0.4C67.6,15.2,68.3,16.4,67.8,17.3 M64.5,22.4c1.6,3.8,2.5,8.1,2.5,12.5     c0,17.8-14.5,32.3-32.3,32.3S2.3,52.8,2.3,34.9c0-17.8,14.5-32.3,32.3-32.3c4.9,0,9.5,1.1,13.7,3C47.6,6.5,46.6,8.3,47,11     c-3.7-1.9-7.9-3-12.4-3C19.8,8,7.7,20.1,7.7,34.9s12.1,26.9,26.9,26.9c14.8,0,26.9-12.1,26.9-26.9c0-2.2-0.3-4.3-0.8-6.3     C62,25.4,63.5,23.4,64.5,22.4"/>
		</g>
	</g>
</g>
</svg>