<?xml version="1.0" encoding="UTF-8"?>
<svg id="Layer_1" xmlns="http://www.w3.org/2000/svg" viewBox="0 0 203.01 102.65"><defs><style>.cls-1{fill:#fff;}</style></defs><path class="cls-1" d="M40.76,70.89c-2.35-1.25-4.99-2.13-7.88-2.61-2.83-.48-5.71-.72-8.55-.72-2.33,0-4.68-.2-7-.6-2.26-.38-4.3-1.09-6.08-2.1-1.73-.98-3.16-2.36-4.25-4.1-1.08-1.71-1.62-3.97-1.62-6.7,.05-2.41,.61-4.47,1.67-6.13,1.07-1.68,2.46-3.05,4.15-4.07,1.73-1.04,3.72-1.81,5.92-2.27,3.75-.8,7.71-.95,11.75-.38,1.57,.22,3.13,.61,4.63,1.17,1.47,.55,2.85,1.29,4.11,2.22,1.24,.91,2.33,2.06,3.25,3.41l.51,.76,3.79-1.59-.8-1.14c-1.03-1.46-2.17-2.77-3.4-3.9-1.25-1.15-2.71-2.13-4.36-2.91-1.62-.76-3.48-1.35-5.52-1.75-2.02-.39-4.38-.59-7-.59s-5.12,.29-7.73,.86c-2.65,.58-5.11,1.54-7.3,2.85-2.24,1.34-4.09,3.12-5.49,5.31-1.43,2.22-2.15,4.96-2.15,8.14,0,3.34,.67,6.18,1.99,8.45,1.31,2.25,3.08,4.08,5.24,5.42,2.12,1.32,4.59,2.27,7.34,2.82,2.69,.54,5.5,.81,8.37,.81,2.28,0,4.69,.17,7.16,.52,2.41,.33,4.65,1.01,6.67,2,1.96,.97,3.6,2.32,4.86,4,1.22,1.64,1.84,3.84,1.84,6.56,0,2.44-.6,4.52-1.77,6.19-1.21,1.72-2.79,3.15-4.68,4.23-1.93,1.11-4.12,1.92-6.51,2.42-2.43,.51-4.83,.77-7.13,.77-3.87,0-7.7-.74-11.37-2.2-3.66-1.45-6.9-3.63-9.64-6.48l-.73-.76-3.02,2.62,.85,.85c2.7,2.7,6.06,5.06,9.98,7,3.96,1.97,8.66,2.96,13.95,2.96,2.52,0,5.19-.29,7.94-.86,2.79-.58,5.41-1.56,7.78-2.93,2.41-1.39,4.42-3.21,5.96-5.41,1.59-2.26,2.39-5.08,2.39-8.4s-.76-6.21-2.24-8.46c-1.47-2.22-3.44-4-5.84-5.28Z"/><path class="cls-1" d="M92.97,61.29c-1.98-2.32-4.39-4.23-7.16-5.69-2.81-1.48-5.98-2.23-9.41-2.23-3.13,0-6.12,.67-8.89,1.99-2.75,1.31-5.18,3.13-7.22,5.38-2.04,2.25-3.67,4.9-4.85,7.87-1.19,2.98-1.79,6.16-1.79,9.44,0,3.1,.56,6.14,1.65,9.03,1.09,2.89,2.65,5.5,4.62,7.78,1.99,2.29,4.4,4.16,7.18,5.57,2.8,1.41,5.92,2.16,9.29,2.22h.04c3.19-.06,6.2-.78,8.97-2.13,2.74-1.34,5.17-3.17,7.22-5.42,2.04-2.25,3.66-4.87,4.81-7.79,1.16-2.92,1.74-6.04,1.74-9.26,0-2.92-.54-5.89-1.6-8.84-1.06-2.95-2.61-5.61-4.58-7.93Zm-16.58,37.38c-2.73,0-5.23-.56-7.43-1.68-2.22-1.12-4.19-2.66-5.84-4.56-1.66-1.91-2.98-4.14-3.92-6.63-.95-2.5-1.48-5.13-1.59-7.75,0-2.43,.45-4.91,1.34-7.38,.88-2.46,2.17-4.7,3.83-6.67,1.65-1.96,3.67-3.58,5.98-4.82,2.28-1.22,4.84-1.84,7.62-1.84,2.61,0,5.08,.58,7.34,1.72,2.29,1.16,4.3,2.71,5.98,4.61,1.69,1.91,3.03,4.14,4,6.63,.97,2.49,1.46,5.1,1.46,7.75,0,2.43-.45,4.91-1.34,7.38-.89,2.46-2.18,4.71-3.83,6.67-1.65,1.95-3.66,3.56-5.98,4.77-2.28,1.19-4.85,1.8-7.63,1.8Z"/><path class="cls-1" d="M119.78,97.56c-.67,.17-1.26,.29-1.75,.38-.52,.09-1.08,.17-1.69,.26-.56,.08-1.11,.12-1.64,.12-1.34,0-2.32-.44-3.01-1.35-.76-1-1.13-2-1.13-3.05V35.58h-3.99v58.34c0,2.19,.69,4.13,2.06,5.75,1.41,1.69,3.43,2.55,5.98,2.55,.8,0,1.6-.05,2.37-.14,.74-.09,1.41-.18,2.01-.27,.61-.09,1.32-.23,2.1-.41l1.35-.31-1.77-3.75-.89,.22Z"/><path class="cls-1" d="M136.98,57.38c-2.07,1.46-3.9,3.31-5.47,5.52v-8.84h-3.98v47.71h3.98v-29.7c.55-1.95,1.31-3.77,2.26-5.43,.96-1.67,2.15-3.14,3.54-4.36,1.39-1.23,3.01-2.22,4.81-2.96,1.8-.74,3.83-1.17,6.03-1.28l1.06-.05v-3.93h-1.12c-4.25,0-7.99,1.11-11.11,3.31Z"/><g><path class="cls-1" d="M193.91,10.61l-33,35.68,41.47-19.13c-1.23-6.33-4.23-12.02-8.47-16.54Z"/><path class="cls-1" d="M169.43,0c-4.57,0-8.93,.92-12.9,2.57l-4.43,37.31L174.23,.35c-1.57-.22-3.17-.35-4.8-.35Z"/><path class="cls-1" d="M202.71,29.21l-39.3,21.99,36.87-4.38c1.75-4.07,2.72-8.54,2.72-13.25,0-1.48-.11-2.94-.29-4.37Z"/><path class="cls-1" d="M188.22,61.41c4.39-2.97,8.04-6.96,10.61-11.62l-34.56,6.86,23.95,4.76Z"/><path class="cls-1" d="M176.25,.69l-19.24,41.7L192.7,9.38c-4.47-4.3-10.13-7.39-16.45-8.69Z"/><path class="cls-1" d="M172.23,67.03c3.72-.31,7.26-1.22,10.54-2.64l-19.36-2.3,8.82,4.93Z"/><path class="cls-1" d="M138.82,19.77c-1.51,3.34-2.49,6.97-2.83,10.79l5.22,9.32-2.39-20.11Z"/><path class="cls-1" d="M153.62,3.95c-4.74,2.53-8.79,6.17-11.83,10.57l4.87,24.5,6.97-35.07Z"/></g></svg>