<?xml version="1.0" encoding="UTF-8"?>
<!-- Generator: Adobe Illustrator 24.1.0, SVG Export Plug-In . SVG Version: 6.00 Build 0)  -->
<!DOCTYPE svg PUBLIC "-//W3C//DTD SVG 1.1//EN" "http://www.w3.org/Graphics/SVG/1.1/DTD/svg11.dtd">
<svg version="1.1" id="Ebene_1" xmlns:x="http://ns.adobe.com/Extensibility/1.0/" xmlns:i="http://ns.adobe.com/AdobeIllustrator/10.0/" xmlns:graph="http://ns.adobe.com/Graphs/1.0/" xmlns="http://www.w3.org/2000/svg" xmlns:xlink="http://www.w3.org/1999/xlink" x="0px" y="0px" viewBox="0 0 283.465 119.208" style="enable-background:new 0 0 283.465 119.208;" xml:space="preserve">
<style type="text/css">
	.st0{fill:#FFFFFF;}
</style>
<metadata>
	<sfw xmlns="http://ns.adobe.com/SaveForWeb/1.0/">
		<slices/>
		<sliceSourceBounds bottomLeftOrigin="true" height="119.535" width="283.465" x="156.083" y="-481.101"/>
	</sfw>
</metadata>
<g id="Logotype_1_">
	<g id="Wordmark_1_">
		<path class="st0" d="M127.824,90.93h-14.63v1.552c4.576,0,5.312,0.981,5.312,6.784v10.462c0,5.802-0.736,6.865-5.312,6.865    c-3.514-0.49-5.884-2.371-9.154-5.966l-3.759-4.086c5.067-0.9,7.764-4.087,7.764-7.684c0-4.494-3.841-7.927-11.033-7.927H82.627    v1.552c4.576,0,5.312,0.981,5.312,6.784v10.462c0,5.802-0.736,6.865-5.312,6.865v1.552h16.264v-1.552    c-4.576,0-5.312-1.063-5.312-6.865v-2.942h1.389l9.072,11.36h23.784c11.688,0,16.754-6.211,16.754-13.649    C144.578,97.059,139.511,90.93,127.824,90.93z M93.579,104.251V93.382h3.351c3.678,0,5.313,2.533,5.313,5.475    c0,2.861-1.635,5.394-5.313,5.394H93.579z M128.069,115.612h-0.572c-2.942,0-3.351-0.736-3.351-4.495V93.382c0,0,3.596,0,3.923,0    c8.499,0,10.052,6.211,10.052,11.033C138.121,109.401,136.568,115.612,128.069,115.612z"/>
		<path class="st0" d="M37.105,107.276l5.639-16.674c1.635-4.822,0.9-6.211-4.331-6.211v-1.635h15.365v1.635    c-5.149,0-6.375,1.226-8.418,7.192l-9.318,27.952h-1.062l-8.337-25.582l-8.499,25.582h-1.063L8.01,91.583    C6.048,85.617,4.74,84.391,0,84.391v-1.635h18.144v1.635c-4.823,0-6.13,1.144-4.413,6.211l5.475,16.674l8.255-24.52h1.553    L37.105,107.276z"/>
		<path class="st0" d="M64.892,119.208c-8.99,0-16.346-6.62-16.346-14.712c0-8.009,7.356-14.63,16.346-14.63    c8.991,0,16.346,6.621,16.346,14.63C81.238,112.588,73.883,119.208,64.892,119.208z M64.892,92.401    c-7.519,0-10.134,6.783-10.134,12.095c0,5.395,2.616,12.097,10.134,12.097c7.602,0,10.217-6.702,10.217-12.097    C75.109,99.184,72.494,92.401,64.892,92.401z"/>
		<path class="st0" d="M164.764,116.511v1.634h-18.716v-1.634c5.476,0,6.457-1.389,6.457-9.563V93.872    c0-8.174-0.981-9.481-6.457-9.481v-1.635h16.918c8.418,0,13.078,4.332,13.078,10.136c0,5.639-4.659,10.053-13.078,10.053h-4.658    v4.004C158.307,115.122,159.288,116.511,164.764,116.511z M162.966,85.698h-4.658V99.92h4.658c4.577,0,6.702-3.187,6.702-7.028    C169.668,88.968,167.543,85.698,162.966,85.698z"/>
		<path class="st0" d="M232.19,110.463l-0.408,1.471c-0.736,2.697-1.635,3.678-7.437,3.678h-1.145c-4.249,0-4.985-0.981-4.985-6.784    v-3.759c6.375,0,6.865,0.571,6.865,4.822h1.553V97.713h-1.553c0,4.25-0.49,4.822-6.865,4.822v-9.153h4.494    c5.803,0,6.702,0.981,7.438,3.678l0.409,1.552h1.307l-0.571-7.682h-24.029v1.552c4.576,0,5.312,0.981,5.312,6.784v10.462    c0,5.308-0.625,6.645-4.233,6.836c-3.43-0.523-5.784-2.394-9.006-5.937l-3.76-4.086c5.068-0.9,7.765-4.087,7.765-7.684    c0-4.494-3.841-7.927-11.033-7.927h-14.385v1.552c4.576,0,5.312,0.981,5.312,6.784v10.462c0,5.802-0.736,6.865-5.312,6.865v1.552    h16.264v-1.552c-4.576,0-5.312-1.063-5.312-6.865v-2.942h1.389l9.072,11.36h33.59l0.49-7.682H232.19z M188.875,104.251V93.382    h3.35c3.678,0,5.313,2.533,5.313,5.475c0,2.861-1.635,5.394-5.313,5.394H188.875z"/>
		<path class="st0" d="M248.781,119.208c-3.269,0-6.13-1.716-7.356-2.779c-0.408,0.409-1.144,1.635-1.307,2.779h-1.553V107.93h1.634    c0.655,5.394,4.413,8.581,9.236,8.581c2.615,0,4.741-1.471,4.741-3.923c0-2.125-1.88-3.76-5.231-5.312l-4.658-2.207    c-3.269-1.554-5.721-4.251-5.721-7.847c0-3.923,3.678-7.274,8.745-7.274c2.697,0,4.985,0.981,6.375,2.125    c0.408-0.327,0.817-1.227,1.063-2.208h1.552v9.645h-1.716c-0.572-3.842-2.697-7.029-7.028-7.029c-2.289,0-4.414,1.308-4.414,3.351    c0,2.125,1.716,3.269,5.64,5.067l4.494,2.207c3.924,1.879,5.476,4.905,5.476,7.357    C258.752,115.612,254.256,119.208,248.781,119.208z"/>
		<path class="st0" d="M273.494,119.208c-3.269,0-6.13-1.716-7.356-2.779c-0.408,0.409-1.144,1.635-1.307,2.779h-1.553V107.93h1.634    c0.655,5.394,4.413,8.581,9.236,8.581c2.615,0,4.741-1.471,4.741-3.923c0-2.125-1.88-3.76-5.231-5.312l-4.659-2.207    c-3.269-1.554-5.721-4.251-5.721-7.847c0-3.923,3.678-7.274,8.746-7.274c2.697,0,4.985,0.981,6.375,2.125    c0.408-0.327,0.817-1.227,1.062-2.208h1.553v9.645h-1.716c-0.572-3.842-2.697-7.029-7.028-7.029c-2.289,0-4.414,1.308-4.414,3.351    c0,2.125,1.716,3.269,5.64,5.067l4.494,2.207c3.924,1.879,5.476,4.905,5.476,7.357    C283.465,115.612,278.969,119.208,273.494,119.208z"/>
	</g>
	<g id="W_Mark_1_">
		<path class="st0" d="M141.732,2.207c4.668,0,9.196,0.914,13.456,2.716c2.048,0.866,4.024,1.939,5.872,3.187    c1.831,1.237,3.553,2.658,5.118,4.223c1.565,1.565,2.986,3.287,4.223,5.118c1.249,1.848,2.321,3.824,3.187,5.872    c1.802,4.261,2.716,8.788,2.716,13.457s-0.914,9.196-2.716,13.457c-0.866,2.048-1.939,4.024-3.187,5.872    c-1.237,1.831-2.658,3.553-4.223,5.118c-1.565,1.565-3.287,2.986-5.118,4.223c-1.848,1.249-3.824,2.321-5.872,3.187    c-4.261,1.802-8.788,2.716-13.456,2.716c-4.668,0-9.196-0.914-13.456-2.716c-2.048-0.866-4.024-1.939-5.872-3.187    c-1.831-1.237-3.553-2.658-5.118-4.223c-1.565-1.565-2.986-3.287-4.223-5.118c-1.249-1.848-2.321-3.824-3.187-5.872    c-1.802-4.261-2.716-8.788-2.716-13.457s0.914-9.196,2.716-13.457c0.866-2.048,1.939-4.024,3.187-5.872    c1.237-1.831,2.658-3.553,4.223-5.118c1.565-1.565,3.287-2.986,5.118-4.223c1.848-1.249,3.824-2.321,5.872-3.187    C132.537,3.121,137.064,2.207,141.732,2.207 M141.732,0c-20.313,0-36.779,16.467-36.779,36.78c0,20.313,16.467,36.78,36.779,36.78    c20.313,0,36.779-16.467,36.779-36.78C178.511,16.467,162.045,0,141.732,0L141.732,0z"/>
		<path class="st0" d="M111.083,36.778c0,12.131,7.049,22.616,17.274,27.583l-14.621-40.057    C112.036,28.117,111.083,32.335,111.083,36.778z M162.423,35.233c0-3.789-1.361-6.412-2.527-8.453    c-1.554-2.526-3.011-4.663-3.011-7.189c0-2.817,2.136-5.44,5.147-5.44c0.136,0,0.265,0.016,0.397,0.025    c-5.453-4.996-12.718-8.047-20.697-8.047c-10.708,0-20.128,5.494-25.608,13.814c0.72,0.023,1.398,0.037,1.973,0.037    c3.205,0,8.169-0.39,8.169-0.39c1.651-0.097,1.847,2.331,0.196,2.526c0,0-1.661,0.194-3.507,0.291l11.161,33.199l6.708-20.116    l-4.775-13.083c-1.651-0.097-3.215-0.291-3.215-0.291c-1.652-0.098-1.459-2.623,0.194-2.526c0,0,5.06,0.39,8.072,0.39    c3.205,0,8.17-0.39,8.17-0.39c1.652-0.097,1.847,2.331,0.195,2.526c0,0-1.663,0.194-3.508,0.291l11.076,32.946l3.162-10.019    C161.6,40.957,162.423,37.855,162.423,35.233z M142.271,39.459l-9.197,26.721c2.747,0.808,5.651,1.249,8.659,1.249    c3.569,0,6.993-0.616,10.179-1.738c-0.082-0.131-0.158-0.27-0.22-0.422L142.271,39.459z M168.628,22.075    c0.132,0.976,0.206,2.023,0.206,3.151c0,3.109-0.583,6.605-2.331,10.978l-9.361,27.066c9.112-5.312,15.24-15.184,15.24-26.491    C172.382,31.45,171.02,26.44,168.628,22.075z"/>
	</g>
</g>
</svg>